<mxfile host="Electron" modified="2023-07-18T05:13:31.545Z" agent="Mozilla/5.0 (Windows NT 10.0; Win64; x64) AppleWebKit/537.36 (KHTML, like Gecko) draw.io/21.2.8 Chrome/112.0.5615.165 Electron/24.2.0 Safari/537.36" etag="oq_YLla75JpTyPa3-y-P" version="21.2.8" type="device">
  <diagram name="Page-1" id="U8G1s_Jqgpj-3dhT1dQG">
    <mxGraphModel dx="4585" dy="688" grid="1" gridSize="10" guides="1" tooltips="1" connect="1" arrows="1" fold="1" page="1" pageScale="1" pageWidth="850" pageHeight="1100" math="0" shadow="0">
      <root>
        <mxCell id="0" />
        <mxCell id="1" parent="0" />
        <mxCell id="saT2jobQe97MY_7Y-iJg-2" value="Case: sum is less than m" style="rounded=0;whiteSpace=wrap;html=1;" parent="1" vertex="1">
          <mxGeometry x="190" y="130" width="170" height="60" as="geometry" />
        </mxCell>
        <mxCell id="saT2jobQe97MY_7Y-iJg-4" value="Answer: Sum" style="text;html=1;strokeColor=none;fillColor=none;align=left;verticalAlign=top;whiteSpace=wrap;rounded=0;" parent="1" vertex="1">
          <mxGeometry x="210" y="210" width="80" height="30" as="geometry" />
        </mxCell>
        <mxCell id="saT2jobQe97MY_7Y-iJg-5" value="Latest upper bound: O(n)" style="text;html=1;strokeColor=none;fillColor=none;align=left;verticalAlign=top;whiteSpace=wrap;rounded=0;" parent="1" vertex="1">
          <mxGeometry x="190" y="280" width="210" height="30" as="geometry" />
        </mxCell>
        <mxCell id="saT2jobQe97MY_7Y-iJg-7" value="Is the sum of modulo equal to modulo of sum? - Yes" style="text;html=1;strokeColor=none;fillColor=none;align=center;verticalAlign=middle;whiteSpace=wrap;rounded=0;" parent="1" vertex="1">
          <mxGeometry x="430" y="170" width="330" height="30" as="geometry" />
        </mxCell>
        <mxCell id="saT2jobQe97MY_7Y-iJg-8" value="find the highest sum of modded that is less than m" style="text;html=1;align=center;verticalAlign=middle;resizable=0;points=[];autosize=1;strokeColor=none;fillColor=none;" parent="1" vertex="1">
          <mxGeometry x="485" y="358" width="290" height="30" as="geometry" />
        </mxCell>
        <mxCell id="saT2jobQe97MY_7Y-iJg-9" value="find the highest mod of sum of modded" style="text;html=1;align=center;verticalAlign=middle;resizable=0;points=[];autosize=1;strokeColor=none;fillColor=none;" parent="1" vertex="1">
          <mxGeometry x="505" y="430" width="230" height="30" as="geometry" />
        </mxCell>
        <mxCell id="saT2jobQe97MY_7Y-iJg-11" value="We can get new modded numbers from adding 2 modded&amp;nbsp; numbers" style="text;html=1;align=center;verticalAlign=middle;resizable=0;points=[];autosize=1;strokeColor=none;fillColor=none;" parent="1" vertex="1">
          <mxGeometry x="325" y="520" width="380" height="30" as="geometry" />
        </mxCell>
        <mxCell id="saT2jobQe97MY_7Y-iJg-12" value="How to get the highest sum of subset less than m?" style="text;html=1;align=center;verticalAlign=middle;resizable=0;points=[];autosize=1;strokeColor=none;fillColor=none;" parent="1" vertex="1">
          <mxGeometry x="-50" y="530" width="290" height="30" as="geometry" />
        </mxCell>
        <mxCell id="saT2jobQe97MY_7Y-iJg-13" value="How to find the subset with the highest sum less than m" style="text;html=1;align=center;verticalAlign=middle;resizable=0;points=[];autosize=1;strokeColor=none;fillColor=none;" parent="1" vertex="1">
          <mxGeometry x="-50" y="580" width="320" height="30" as="geometry" />
        </mxCell>
        <mxCell id="saT2jobQe97MY_7Y-iJg-14" value="Memoization: O(N^2)" style="text;html=1;align=center;verticalAlign=middle;resizable=0;points=[];autosize=1;strokeColor=none;fillColor=none;" parent="1" vertex="1">
          <mxGeometry x="-40" y="630" width="140" height="30" as="geometry" />
        </mxCell>
        <mxCell id="saT2jobQe97MY_7Y-iJg-16" value="&lt;h1&gt;&lt;span style=&quot;background-color: initial;&quot;&gt;Speed optimizations:&lt;/span&gt;&lt;/h1&gt;&lt;h1&gt;&lt;span style=&quot;font-size: 12px; font-weight: 400;&quot;&gt;Min search&lt;/span&gt;&lt;/h1&gt;" style="text;html=1;strokeColor=none;fillColor=none;spacing=5;spacingTop=-20;whiteSpace=wrap;overflow=hidden;rounded=0;" parent="1" vertex="1">
          <mxGeometry x="95" y="725" width="330" height="120" as="geometry" />
        </mxCell>
        <mxCell id="saT2jobQe97MY_7Y-iJg-17" value="How to narrow down search space?" style="text;html=1;align=center;verticalAlign=middle;resizable=0;points=[];autosize=1;strokeColor=none;fillColor=none;" parent="1" vertex="1">
          <mxGeometry x="-260" y="725" width="210" height="30" as="geometry" />
        </mxCell>
        <mxCell id="saT2jobQe97MY_7Y-iJg-18" value="Is it possible to project min?" style="text;html=1;align=center;verticalAlign=middle;resizable=0;points=[];autosize=1;strokeColor=none;fillColor=none;" parent="1" vertex="1">
          <mxGeometry x="-260" y="770" width="170" height="30" as="geometry" />
        </mxCell>
        <mxCell id="saT2jobQe97MY_7Y-iJg-19" value="Skip combinations with higher projected min?" style="text;html=1;align=center;verticalAlign=middle;resizable=0;points=[];autosize=1;strokeColor=none;fillColor=none;" parent="1" vertex="1">
          <mxGeometry x="-270" y="810" width="260" height="30" as="geometry" />
        </mxCell>
        <mxCell id="saT2jobQe97MY_7Y-iJg-20" value="Divide numbers into primary and composite" style="text;html=1;align=center;verticalAlign=middle;resizable=0;points=[];autosize=1;strokeColor=none;fillColor=none;" parent="1" vertex="1">
          <mxGeometry x="-265" y="845" width="250" height="30" as="geometry" />
        </mxCell>
        <mxCell id="saT2jobQe97MY_7Y-iJg-21" value="Pyramid memoization" style="text;html=1;align=center;verticalAlign=middle;resizable=0;points=[];autosize=1;strokeColor=none;fillColor=none;" parent="1" vertex="1">
          <mxGeometry x="-270" y="890" width="140" height="30" as="geometry" />
        </mxCell>
        <mxCell id="saT2jobQe97MY_7Y-iJg-22" value="Max memoization&lt;br&gt;" style="text;html=1;align=center;verticalAlign=middle;resizable=0;points=[];autosize=1;strokeColor=none;fillColor=none;" parent="1" vertex="1">
          <mxGeometry x="-750" y="695" width="120" height="30" as="geometry" />
        </mxCell>
        <mxCell id="saT2jobQe97MY_7Y-iJg-23" value="Next highest max search" style="text;html=1;align=center;verticalAlign=middle;resizable=0;points=[];autosize=1;strokeColor=none;fillColor=none;" parent="1" vertex="1">
          <mxGeometry x="-770" y="768" width="160" height="30" as="geometry" />
        </mxCell>
        <mxCell id="saT2jobQe97MY_7Y-iJg-24" value="Find elements to remove such that we can insert last_val" style="text;html=1;align=center;verticalAlign=middle;resizable=0;points=[];autosize=1;strokeColor=none;fillColor=none;" parent="1" vertex="1">
          <mxGeometry x="-820" y="820" width="330" height="30" as="geometry" />
        </mxCell>
        <mxCell id="saT2jobQe97MY_7Y-iJg-25" value="to_remove = last_val - remaining" style="text;html=1;align=center;verticalAlign=middle;resizable=0;points=[];autosize=1;strokeColor=none;fillColor=none;" parent="1" vertex="1">
          <mxGeometry x="-810" y="900" width="200" height="30" as="geometry" />
        </mxCell>
        <mxCell id="saT2jobQe97MY_7Y-iJg-26" value="remaining = m-1 - cur_max" style="text;html=1;align=center;verticalAlign=middle;resizable=0;points=[];autosize=1;strokeColor=none;fillColor=none;" parent="1" vertex="1">
          <mxGeometry x="-810" y="860" width="170" height="30" as="geometry" />
        </mxCell>
        <mxCell id="saT2jobQe97MY_7Y-iJg-28" value="Find lowest sum where remaining &amp;gt; lowest sum &amp;gt;= to_remove" style="text;html=1;align=center;verticalAlign=middle;resizable=0;points=[];autosize=1;strokeColor=none;fillColor=none;" parent="1" vertex="1">
          <mxGeometry x="-820" y="940" width="350" height="30" as="geometry" />
        </mxCell>
        <mxCell id="saT2jobQe97MY_7Y-iJg-29" value="lowest sum &amp;lt; remaining" style="text;html=1;align=center;verticalAlign=middle;resizable=0;points=[];autosize=1;strokeColor=none;fillColor=none;" parent="1" vertex="1">
          <mxGeometry x="-800" y="980" width="150" height="30" as="geometry" />
        </mxCell>
        <mxCell id="saT2jobQe97MY_7Y-iJg-30" value="lowest sum &amp;gt;= to_remove" style="text;html=1;align=center;verticalAlign=middle;resizable=0;points=[];autosize=1;strokeColor=none;fillColor=none;" parent="1" vertex="1">
          <mxGeometry x="-805" y="1020" width="160" height="30" as="geometry" />
        </mxCell>
        <mxCell id="saT2jobQe97MY_7Y-iJg-31" value="Highest sum search:" style="text;html=1;align=center;verticalAlign=middle;resizable=0;points=[];autosize=1;strokeColor=none;fillColor=none;" parent="1" vertex="1">
          <mxGeometry x="-800" y="1140" width="130" height="30" as="geometry" />
        </mxCell>
        <mxCell id="saT2jobQe97MY_7Y-iJg-33" value="" style="shape=loopLimit;whiteSpace=wrap;html=1;" parent="1" vertex="1">
          <mxGeometry x="-765" y="1240" width="135" height="70" as="geometry" />
        </mxCell>
        <mxCell id="saT2jobQe97MY_7Y-iJg-34" value="Find lowest &lt;b&gt;primary&lt;/b&gt; higher than to_remove" style="rounded=0;whiteSpace=wrap;html=1;" parent="1" vertex="1">
          <mxGeometry x="-785" y="1320" width="175" height="60" as="geometry" />
        </mxCell>
        <mxCell id="saT2jobQe97MY_7Y-iJg-35" value="Find subset sum lower than primary but higher than to_remove" style="rounded=0;whiteSpace=wrap;html=1;" parent="1" vertex="1">
          <mxGeometry x="-785" y="1400" width="175" height="60" as="geometry" />
        </mxCell>
        <mxCell id="saT2jobQe97MY_7Y-iJg-38" value="exclude primaries greater than or equal to primary" style="rounded=0;whiteSpace=wrap;html=1;" parent="1" vertex="1">
          <mxGeometry x="-1822.5" y="1230" width="175" height="60" as="geometry" />
        </mxCell>
        <mxCell id="saT2jobQe97MY_7Y-iJg-40" value="Find subset sum lower than primary but higher than to_remove" style="shape=process;whiteSpace=wrap;html=1;backgroundOutline=1;" parent="1" vertex="1">
          <mxGeometry x="-1840" y="1110" width="210" height="80" as="geometry" />
        </mxCell>
        <mxCell id="fh1heTxW32Ogy3UbaOgC-1" value="Search approach" style="text;html=1;align=center;verticalAlign=middle;resizable=0;points=[];autosize=1;strokeColor=none;fillColor=none;" vertex="1" parent="1">
          <mxGeometry x="-1990" y="1340" width="110" height="30" as="geometry" />
        </mxCell>
        <mxCell id="fh1heTxW32Ogy3UbaOgC-2" value="Boolean addition approach" style="text;html=1;align=center;verticalAlign=middle;resizable=0;points=[];autosize=1;strokeColor=none;fillColor=none;" vertex="1" parent="1">
          <mxGeometry x="-1430" y="1150" width="170" height="30" as="geometry" />
        </mxCell>
        <mxCell id="fh1heTxW32Ogy3UbaOgC-3" value="What is the stopping condition" style="text;html=1;align=center;verticalAlign=middle;resizable=0;points=[];autosize=1;strokeColor=none;fillColor=none;" vertex="1" parent="1">
          <mxGeometry x="-2170" y="1400" width="180" height="30" as="geometry" />
        </mxCell>
        <mxCell id="fh1heTxW32Ogy3UbaOgC-4" value="How to check for the stopping condition" style="text;html=1;align=center;verticalAlign=middle;resizable=0;points=[];autosize=1;strokeColor=none;fillColor=none;" vertex="1" parent="1">
          <mxGeometry x="-2180" y="1430" width="230" height="30" as="geometry" />
        </mxCell>
        <mxCell id="fh1heTxW32Ogy3UbaOgC-5" value="If stopping condition is not feasible:&lt;br&gt;How do we continue from last iteration" style="text;html=1;align=center;verticalAlign=middle;resizable=0;points=[];autosize=1;strokeColor=none;fillColor=none;" vertex="1" parent="1">
          <mxGeometry x="-2195" y="1500" width="230" height="40" as="geometry" />
        </mxCell>
        <mxCell id="fh1heTxW32Ogy3UbaOgC-6" value="Start storing min_sums after reaching m" style="text;html=1;align=center;verticalAlign=middle;resizable=0;points=[];autosize=1;strokeColor=none;fillColor=none;" vertex="1" parent="1">
          <mxGeometry x="-2430" y="1520" width="240" height="30" as="geometry" />
        </mxCell>
        <mxCell id="fh1heTxW32Ogy3UbaOgC-7" value="target = to_remove + remaining" style="text;html=1;align=center;verticalAlign=middle;resizable=0;points=[];autosize=1;strokeColor=none;fillColor=none;" vertex="1" parent="1">
          <mxGeometry x="-2380" y="1650" width="190" height="30" as="geometry" />
        </mxCell>
        <mxCell id="fh1heTxW32Ogy3UbaOgC-8" value="dp_sum of 0 to cur_i, 0 to target" style="text;html=1;align=center;verticalAlign=middle;resizable=0;points=[];autosize=1;strokeColor=none;fillColor=none;" vertex="1" parent="1">
          <mxGeometry x="-2380" y="1690" width="190" height="30" as="geometry" />
        </mxCell>
        <mxCell id="fh1heTxW32Ogy3UbaOgC-9" value="Find minimum sum &amp;gt; to_remove" style="text;html=1;align=center;verticalAlign=middle;resizable=0;points=[];autosize=1;strokeColor=none;fillColor=none;" vertex="1" parent="1">
          <mxGeometry x="-2380" y="1730" width="200" height="30" as="geometry" />
        </mxCell>
        <mxCell id="fh1heTxW32Ogy3UbaOgC-11" value="if min &amp;gt;= remaining, end" style="text;html=1;align=center;verticalAlign=middle;resizable=0;points=[];autosize=1;strokeColor=none;fillColor=none;" vertex="1" parent="1">
          <mxGeometry x="-2360" y="1760" width="150" height="30" as="geometry" />
        </mxCell>
        <mxCell id="fh1heTxW32Ogy3UbaOgC-12" value="Iter 1" style="text;html=1;align=center;verticalAlign=middle;resizable=0;points=[];autosize=1;strokeColor=none;fillColor=none;" vertex="1" parent="1">
          <mxGeometry x="-2400" y="1618" width="50" height="30" as="geometry" />
        </mxCell>
        <mxCell id="fh1heTxW32Ogy3UbaOgC-13" value="Iter 2" style="text;html=1;align=center;verticalAlign=middle;resizable=0;points=[];autosize=1;strokeColor=none;fillColor=none;" vertex="1" parent="1">
          <mxGeometry x="-2400" y="1820" width="50" height="30" as="geometry" />
        </mxCell>
        <mxCell id="fh1heTxW32Ogy3UbaOgC-14" value="Get new remaining, new to_remove, set target" style="text;html=1;align=center;verticalAlign=middle;resizable=0;points=[];autosize=1;strokeColor=none;fillColor=none;" vertex="1" parent="1">
          <mxGeometry x="-2400" y="1850" width="270" height="30" as="geometry" />
        </mxCell>
        <mxCell id="fh1heTxW32Ogy3UbaOgC-17" value="target&amp;nbsp; is&amp;nbsp; &amp;lt; prev_target" style="text;html=1;align=center;verticalAlign=middle;resizable=0;points=[];autosize=1;strokeColor=none;fillColor=none;" vertex="1" parent="1">
          <mxGeometry x="-2400" y="1880" width="150" height="30" as="geometry" />
        </mxCell>
        <mxCell id="fh1heTxW32Ogy3UbaOgC-18" value="dp_sum of 0 to cur_i, 0 to target" style="text;html=1;align=center;verticalAlign=middle;resizable=0;points=[];autosize=1;strokeColor=none;fillColor=none;" vertex="1" parent="1">
          <mxGeometry x="-2385" y="1910" width="190" height="30" as="geometry" />
        </mxCell>
        <mxCell id="fh1heTxW32Ogy3UbaOgC-19" value="Reuse prev dp_sum only up to new_target" style="text;html=1;align=center;verticalAlign=middle;resizable=0;points=[];autosize=1;strokeColor=none;fillColor=none;" vertex="1" parent="1">
          <mxGeometry x="-2370" y="1940" width="250" height="30" as="geometry" />
        </mxCell>
        <mxCell id="fh1heTxW32Ogy3UbaOgC-20" value="Compute new sums including cur_i" style="text;html=1;align=center;verticalAlign=middle;resizable=0;points=[];autosize=1;strokeColor=none;fillColor=none;" vertex="1" parent="1">
          <mxGeometry x="-2370" y="1970" width="210" height="30" as="geometry" />
        </mxCell>
        <mxCell id="fh1heTxW32Ogy3UbaOgC-21" value="Find minimum sum &amp;gt; to_remove" style="text;html=1;align=center;verticalAlign=middle;resizable=0;points=[];autosize=1;strokeColor=none;fillColor=none;" vertex="1" parent="1">
          <mxGeometry x="-2380" y="2020" width="200" height="30" as="geometry" />
        </mxCell>
        <mxCell id="fh1heTxW32Ogy3UbaOgC-22" value="if min &amp;gt;= remaining, end" style="text;html=1;align=center;verticalAlign=middle;resizable=0;points=[];autosize=1;strokeColor=none;fillColor=none;" vertex="1" parent="1">
          <mxGeometry x="-2360" y="2050" width="150" height="30" as="geometry" />
        </mxCell>
        <mxCell id="fh1heTxW32Ogy3UbaOgC-23" value="what if target_sum is big?" style="text;html=1;align=center;verticalAlign=middle;resizable=0;points=[];autosize=1;strokeColor=none;fillColor=none;" vertex="1" parent="1">
          <mxGeometry x="-2010" y="2035" width="160" height="30" as="geometry" />
        </mxCell>
        <mxCell id="fh1heTxW32Ogy3UbaOgC-24" value="Search first to reduce target" style="text;html=1;align=center;verticalAlign=middle;resizable=0;points=[];autosize=1;strokeColor=none;fillColor=none;" vertex="1" parent="1">
          <mxGeometry x="-2010" y="2065" width="170" height="30" as="geometry" />
        </mxCell>
        <mxCell id="fh1heTxW32Ogy3UbaOgC-25" value="how to add new sums?" style="text;html=1;align=center;verticalAlign=middle;resizable=0;points=[];autosize=1;strokeColor=none;fillColor=none;" vertex="1" parent="1">
          <mxGeometry x="-2030" y="1970" width="150" height="30" as="geometry" />
        </mxCell>
        <mxCell id="fh1heTxW32Ogy3UbaOgC-26" value="Get modulo of all nums" style="rounded=0;whiteSpace=wrap;html=1;" vertex="1" parent="1">
          <mxGeometry x="-2975" y="1320" width="120" height="60" as="geometry" />
        </mxCell>
        <mxCell id="fh1heTxW32Ogy3UbaOgC-28" value="Sort ascending" style="rounded=0;whiteSpace=wrap;html=1;" vertex="1" parent="1">
          <mxGeometry x="-2975" y="1415" width="120" height="60" as="geometry" />
        </mxCell>
        <mxCell id="fh1heTxW32Ogy3UbaOgC-29" value="Get cumsum until before m is exceeded" style="rounded=0;whiteSpace=wrap;html=1;" vertex="1" parent="1">
          <mxGeometry x="-2975" y="1500" width="120" height="60" as="geometry" />
        </mxCell>
        <mxCell id="fh1heTxW32Ogy3UbaOgC-32" value="Loop condition" style="shape=loopLimit;whiteSpace=wrap;html=1;" vertex="1" parent="1">
          <mxGeometry x="-2965" y="1768" width="100" height="80" as="geometry" />
        </mxCell>
        <mxCell id="fh1heTxW32Ogy3UbaOgC-33" value="Compute remaining, to_remove, target_max" style="whiteSpace=wrap;html=1;" vertex="1" parent="1">
          <mxGeometry x="-2975" y="1588" width="120" height="60" as="geometry" />
        </mxCell>
        <mxCell id="fh1heTxW32Ogy3UbaOgC-35" value="Initialize dp&amp;nbsp;" style="whiteSpace=wrap;html=1;" vertex="1" parent="1">
          <mxGeometry x="-2975" y="1678" width="120" height="60" as="geometry" />
        </mxCell>
        <mxCell id="fh1heTxW32Ogy3UbaOgC-36" value="Compute DP" style="whiteSpace=wrap;html=1;" vertex="1" parent="1">
          <mxGeometry x="-2975" y="1878" width="120" height="60" as="geometry" />
        </mxCell>
        <mxCell id="fh1heTxW32Ogy3UbaOgC-37" value="Compute remaining, to_remove, target_max" style="whiteSpace=wrap;html=1;" vertex="1" parent="1">
          <mxGeometry x="-2975" y="2068" width="120" height="60" as="geometry" />
        </mxCell>
        <mxCell id="fh1heTxW32Ogy3UbaOgC-38" value="Get modulo of all nums" style="rounded=0;whiteSpace=wrap;html=1;" vertex="1" parent="1">
          <mxGeometry x="-3200" y="1320" width="120" height="60" as="geometry" />
        </mxCell>
        <mxCell id="fh1heTxW32Ogy3UbaOgC-39" value="Sort ascending" style="rounded=0;whiteSpace=wrap;html=1;" vertex="1" parent="1">
          <mxGeometry x="-3200" y="1415" width="120" height="60" as="geometry" />
        </mxCell>
        <mxCell id="fh1heTxW32Ogy3UbaOgC-40" value="Get cumsum until before m is exceeded" style="rounded=0;whiteSpace=wrap;html=1;" vertex="1" parent="1">
          <mxGeometry x="-3200" y="1500" width="120" height="60" as="geometry" />
        </mxCell>
        <mxCell id="fh1heTxW32Ogy3UbaOgC-42" value="Loop condition" style="shape=loopLimit;whiteSpace=wrap;html=1;" vertex="1" parent="1">
          <mxGeometry x="-3190" y="1678" width="100" height="80" as="geometry" />
        </mxCell>
        <mxCell id="fh1heTxW32Ogy3UbaOgC-44" value="Initialize dp&amp;nbsp;" style="whiteSpace=wrap;html=1;" vertex="1" parent="1">
          <mxGeometry x="-3200" y="1588" width="120" height="60" as="geometry" />
        </mxCell>
        <mxCell id="fh1heTxW32Ogy3UbaOgC-45" value="Compute DP" style="whiteSpace=wrap;html=1;" vertex="1" parent="1">
          <mxGeometry x="-3200" y="1878" width="120" height="60" as="geometry" />
        </mxCell>
        <mxCell id="fh1heTxW32Ogy3UbaOgC-46" value="Compute remaining, to_remove, target_max" style="whiteSpace=wrap;html=1;" vertex="1" parent="1">
          <mxGeometry x="-3200" y="1788" width="120" height="60" as="geometry" />
        </mxCell>
        <mxCell id="fh1heTxW32Ogy3UbaOgC-47" value="Find min sum" style="whiteSpace=wrap;html=1;" vertex="1" parent="1">
          <mxGeometry x="-3200" y="1968" width="120" height="60" as="geometry" />
        </mxCell>
        <mxCell id="fh1heTxW32Ogy3UbaOgC-49" value="Find min sum" style="whiteSpace=wrap;html=1;" vertex="1" parent="1">
          <mxGeometry x="-2975" y="1968" width="120" height="60" as="geometry" />
        </mxCell>
        <mxCell id="fh1heTxW32Ogy3UbaOgC-51" value="Modify max" style="whiteSpace=wrap;html=1;" vertex="1" parent="1">
          <mxGeometry x="-3200" y="2050" width="120" height="60" as="geometry" />
        </mxCell>
        <mxCell id="fh1heTxW32Ogy3UbaOgC-52" value="Check condition" style="whiteSpace=wrap;html=1;" vertex="1" parent="1">
          <mxGeometry x="-3200" y="2140" width="120" height="60" as="geometry" />
        </mxCell>
        <mxCell id="fh1heTxW32Ogy3UbaOgC-53" value="Case above is incomplete" style="text;html=1;strokeColor=none;fillColor=none;align=center;verticalAlign=middle;whiteSpace=wrap;rounded=0;" vertex="1" parent="1">
          <mxGeometry x="-2550" y="2150" width="155" height="30" as="geometry" />
        </mxCell>
        <mxCell id="fh1heTxW32Ogy3UbaOgC-54" value="What if it takes more than 2 new elements to replace the elements on the left?" style="text;html=1;strokeColor=none;fillColor=none;align=left;verticalAlign=middle;whiteSpace=wrap;rounded=0;" vertex="1" parent="1">
          <mxGeometry x="-2530" y="2440" width="430" height="30" as="geometry" />
        </mxCell>
        <mxCell id="fh1heTxW32Ogy3UbaOgC-55" value="New problem from reverse case:" style="text;html=1;strokeColor=none;fillColor=none;align=left;verticalAlign=middle;whiteSpace=wrap;rounded=0;" vertex="1" parent="1">
          <mxGeometry x="-2530" y="2360" width="310" height="30" as="geometry" />
        </mxCell>
        <mxCell id="fh1heTxW32Ogy3UbaOgC-56" value="Since a_mod is sorted ascending, new elements might exceed the target_sum" style="text;html=1;align=center;verticalAlign=middle;resizable=0;points=[];autosize=1;strokeColor=none;fillColor=none;" vertex="1" parent="1">
          <mxGeometry x="-2550" y="2190" width="440" height="30" as="geometry" />
        </mxCell>
        <mxCell id="fh1heTxW32Ogy3UbaOgC-57" value="due to higher last_val" style="text;html=1;align=center;verticalAlign=middle;resizable=0;points=[];autosize=1;strokeColor=none;fillColor=none;" vertex="1" parent="1">
          <mxGeometry x="-2310" y="2220" width="140" height="30" as="geometry" />
        </mxCell>
        <mxCell id="fh1heTxW32Ogy3UbaOgC-58" value="S1: set target_max to last_val -&amp;gt; does not work because of large constraint: 10^18" style="text;html=1;align=center;verticalAlign=middle;resizable=0;points=[];autosize=1;strokeColor=none;fillColor=none;" vertex="1" parent="1">
          <mxGeometry x="-2540" y="2260" width="460" height="30" as="geometry" />
        </mxCell>
        <mxCell id="fh1heTxW32Ogy3UbaOgC-59" value="S2: Reverse a_mod" style="text;html=1;align=left;verticalAlign=middle;resizable=0;points=[];autosize=1;strokeColor=none;fillColor=none;" vertex="1" parent="1">
          <mxGeometry x="-2530" y="2310" width="130" height="30" as="geometry" />
        </mxCell>
        <mxCell id="fh1heTxW32Ogy3UbaOgC-61" value="Since new values are less than existing values:" style="text;html=1;align=center;verticalAlign=middle;resizable=0;points=[];autosize=1;strokeColor=none;fillColor=none;" vertex="1" parent="1">
          <mxGeometry x="-2540" y="2400" width="270" height="30" as="geometry" />
        </mxCell>
        <mxCell id="fh1heTxW32Ogy3UbaOgC-62" value="Case 1: still have remainder left to accomodate new value" style="text;html=1;strokeColor=none;fillColor=none;align=center;verticalAlign=middle;whiteSpace=wrap;rounded=0;" vertex="1" parent="1">
          <mxGeometry x="-2510" y="2480" width="210" height="30" as="geometry" />
        </mxCell>
        <mxCell id="fh1heTxW32Ogy3UbaOgC-63" value="Case 2: will exceed m" style="text;html=1;strokeColor=none;fillColor=none;align=left;verticalAlign=middle;whiteSpace=wrap;rounded=0;" vertex="1" parent="1">
          <mxGeometry x="-2500" y="2530" width="210" height="30" as="geometry" />
        </mxCell>
        <mxCell id="fh1heTxW32Ogy3UbaOgC-64" value="S: just increase cur_max by new val" style="text;html=1;strokeColor=none;fillColor=none;align=left;verticalAlign=middle;whiteSpace=wrap;rounded=0;" vertex="1" parent="1">
          <mxGeometry x="-2270" y="2480" width="210" height="30" as="geometry" />
        </mxCell>
        <mxCell id="fh1heTxW32Ogy3UbaOgC-65" value="S: Accumulate right value until:" style="text;html=1;align=left;verticalAlign=middle;resizable=0;points=[];autosize=1;strokeColor=none;fillColor=none;" vertex="1" parent="1">
          <mxGeometry x="-2270" y="2538" width="190" height="30" as="geometry" />
        </mxCell>
        <mxCell id="fh1heTxW32Ogy3UbaOgC-66" value="C1: Accumulated value can replace left" style="text;html=1;align=left;verticalAlign=middle;resizable=0;points=[];autosize=1;strokeColor=none;fillColor=none;" vertex="1" parent="1">
          <mxGeometry x="-2250" y="2580" width="230" height="30" as="geometry" />
        </mxCell>
        <mxCell id="fh1heTxW32Ogy3UbaOgC-67" value="C2: New value can be accomodated by remainder" style="text;html=1;align=left;verticalAlign=middle;resizable=0;points=[];autosize=1;strokeColor=none;fillColor=none;" vertex="1" parent="1">
          <mxGeometry x="-2250" y="2620" width="290" height="30" as="geometry" />
        </mxCell>
        <mxCell id="fh1heTxW32Ogy3UbaOgC-68" value="Same issue as non-reversed: target_max as big as left value" style="text;html=1;align=center;verticalAlign=middle;resizable=0;points=[];autosize=1;strokeColor=none;fillColor=none;fontSize=12;fontFamily=Helvetica;fontColor=default;" vertex="1" parent="1">
          <mxGeometry x="-1997.5" y="2580" width="350" height="30" as="geometry" />
        </mxCell>
      </root>
    </mxGraphModel>
  </diagram>
</mxfile>
